<?xml version="1.0" encoding="utf-8"?>
<svg data-v-fde0c5aa="" viewBox="0 0 300 300" class="iconLeft" xmlns="http://www.w3.org/2000/svg">
  <rect data-v-fde0c5aa="" fill="#E7F3FC" width="300px" height="300px" class="logo-background-square" y="0" x="0" rx="47.573" ry="47.573"/>
  <defs data-v-fde0c5aa="">
    <linearGradient data-v-fde0c5aa="" gradientTransform="rotate(25)" id="88b9fb64-3c00-454c-b588-b391c4daccb1" x1="0%" y1="0%" x2="100%" y2="0%">
      <stop data-v-fde0c5aa="" offset="0" stop-color="#007DE8" stop-opacity="1"/>
      <stop data-v-fde0c5aa="" offset="1" stop-color="#A1C3DB" stop-opacity="1"/>
    </linearGradient>
  </defs>
  <g data-v-fde0c5aa="" id="bdd6d97e-6e47-4d00-93b0-41f36f9db63e" stroke="none" fill="url(#88b9fb64-3c00-454c-b588-b391c4daccb1)" transform="matrix(2.09983, 0, 0, 2.09983, 44.187595, 70.984138)" style="">
    <path d="M55.133 11.345c14.129 0 25.585 13.045 25.66 29.169 0 .055.005.107.005.162 0 8.101-6.565 14.667-14.665 14.667H30.934c-6.479 0-11.732-5.254-11.732-11.733 0-6.381 5.096-11.569 11.439-11.725 3.269-11.903 12.996-20.54 24.492-20.54m0-7.333c-7.344 0-14.289 2.614-20.089 7.56-4.338 3.698-7.725 8.44-9.95 13.885a18.993 18.993 0 0 0-7.795 4.829 18.952 18.952 0 0 0-5.431 13.324c0 10.512 8.553 19.065 19.065 19.066h35.198c12.13 0 22-9.867 22-22 0-.096-.003-.19-.006-.285-.064-9.538-3.396-18.538-9.387-25.35C72.484 7.93 64.102 4.012 55.133 4.012z" transform="matrix(1, 0, 0, 1, 1.0748890791621761, 0.9993689578665936)"/>
  </g>
</svg>